<?xml version="1.0" encoding="iso-8859-1"?>
<!-- Generator: Adobe Illustrator 19.0.0, SVG Export Plug-In . SVG Version: 6.00 Build 0)  -->
<svg version="1.1" id="Layer_1" xmlns="http://www.w3.org/2000/svg" xmlns:xlink="http://www.w3.org/1999/xlink" x="0px" y="0px"
	 viewBox="0 0 504 504" style="enable-background:new 0 0 504 504;" xml:space="preserve">
<path style="fill:#00233F;" d="M412,482.4c0,12-9.6,21.6-21.6,21.6H113.6c-12,0-21.6-9.6-21.6-21.6V33.6c0-12,9.6-21.6,21.6-21.6
	h276.8c12,0,21.6,9.6,21.6,21.6V482.4z"/>
<path style="fill:#0C466D;" d="M412,470.4c0,12-9.6,21.6-21.6,21.6H113.6c-12,0-21.6-9.6-21.6-21.6V21.6C92,9.6,101.6,0,113.6,0
	h276.8c12,0,21.6,9.6,21.6,21.6V470.4z"/>
<g>
	<path style="fill:#00233F;" d="M92,21.6C92,9.6,101.6,0,113.6,0h276.8c12,0,21.6,9.6,21.6,21.6v448.8c0,12-9.6,21.6-21.6,21.6"/>
	<path style="fill:#00233F;" d="M390.4,424c0,10.4-8,18.4-18.4,18.4H132c-10.4,0-18.4-8-18.4-18.4V52.8c0-10.4,8-18.4,18.4-18.4h240
		c10.4,0,18.4,8,18.4,18.4V424z"/>
</g>
<path style="fill:#35DBDB;" d="M390.4,411.2c0,10.4-8,18.4-18.4,18.4H132c-10.4,0-18.4-8-18.4-18.4v-372c0-10.4,8-18.4,18.4-18.4
	h240c10.4,0,18.4,8,18.4,18.4V411.2z"/>
<path style="fill:#1FC5C9;" d="M113.6,39.2c0-10.4,8-18.4,18.4-18.4h240c10.4,0,18.4,8,18.4,18.4v372c0,10.4-8,18.4-18.4,18.4"/>
<path style="fill:#12AAB2;" d="M372,20.8c10.4,0,18.4,8,18.4,18.4v372c0,10.4-8,18.4-18.4,18.4"/>
<path style="fill:#57F2EE;" d="M132,429.6c-10.4,0-18.4-8-18.4-18.4v-372c0-10.4,8-18.4,18.4-18.4"/>
<path style="fill:#03355B;" d="M300.8,472c0,5.6-4,9.6-9.6,9.6h-78.4c-5.6,0-9.6-4-9.6-9.6v-12c0-5.6,4-9.6,9.6-9.6h78.4
	c5.6,0,9.6,4,9.6,9.6V472z"/>
<g>
	<path style="fill:#71A7BF;" d="M291.2,482.4h-78.4c-5.6,0-10.4-4.8-10.4-10.4v-12c0-5.6,4.8-10.4,10.4-10.4h78.4
		c5.6,0,10.4,4.8,10.4,10.4v12C301.6,477.6,296.8,482.4,291.2,482.4z M212.8,451.2c-4.8,0-8.8,4-8.8,8.8v12c0,4.8,4,8.8,8.8,8.8
		h78.4c4.8,0,8.8-4,8.8-8.8v-12c0-4.8-4-8.8-8.8-8.8H212.8z"/>
	<path style="fill:#71A7BF;" d="M171.2,456.8c0,0.8-0.8,1.6-1.6,1.6h-26.4c-0.8,0-1.6-0.8-1.6-1.6l0,0c0-0.8,0.8-1.6,1.6-1.6h26.4
		C170.4,456,171.2,456.8,171.2,456.8L171.2,456.8z"/>
	<path style="fill:#71A7BF;" d="M171.2,465.6c0,0.8-0.8,1.6-1.6,1.6h-26.4c-0.8,0-1.6-0.8-1.6-1.6l0,0c0-0.8,0.8-1.6,1.6-1.6h26.4
		C170.4,464,171.2,464.8,171.2,465.6L171.2,465.6z"/>
	<path style="fill:#71A7BF;" d="M171.2,474.4c0,0.8-0.8,1.6-1.6,1.6h-26.4c-0.8,0-1.6-0.8-1.6-1.6l0,0c0-0.8,0.8-1.6,1.6-1.6h26.4
		C170.4,472.8,171.2,473.6,171.2,474.4L171.2,474.4z"/>
	<path style="fill:#71A7BF;" d="M352.8,456.8c0,0.8-0.8,1.6-1.6,1.6h-26.4c-0.8,0-1.6-0.8-1.6-1.6l0,0c0-0.8,0.8-1.6,1.6-1.6h26.4
		C352,456,352.8,456.8,352.8,456.8L352.8,456.8z"/>
	<path style="fill:#71A7BF;" d="M351.2,480c-0.8,0-1.6-0.8-1.6-0.8v-21.6c0-0.8,0.8-0.8,1.6-0.8l0,0c0.8,0,1.6,0.8,1.6,0.8v21.6
		C352.8,480,352,480,351.2,480L351.2,480z"/>
</g>
<g>
	<path style="fill:#1FC5C9;" d="M153.6,10.4c0,0.8-0.8,2.4-2.4,2.4h-13.6c-0.8,0-2.4-0.8-2.4-2.4l0,0c0-0.8,0.8-2.4,2.4-2.4h13.6
		C152.8,8.8,153.6,9.6,153.6,10.4L153.6,10.4z"/>
	<circle style="fill:#1FC5C9;" cx="364.8" cy="10.4" r="5.6"/>
</g>
<g>
</g>
<g>
</g>
<g>
</g>
<g>
</g>
<g>
</g>
<g>
</g>
<g>
</g>
<g>
</g>
<g>
</g>
<g>
</g>
<g>
</g>
<g>
</g>
<g>
</g>
<g>
</g>
<g>
</g>
</svg>
